<mxfile host="app.diagrams.net" modified="2024-03-22T03:20:44.956Z" agent="Mozilla/5.0 (Windows NT 10.0; Win64; x64) AppleWebKit/537.36 (KHTML, like Gecko) Chrome/122.0.0.0 Safari/537.36 Edg/122.0.0.0" version="24.0.7" etag="F664pIO-kgP56ssr6D6w" type="github">
  <diagram name="Page-1" id="IgUZM295CT_9YbXOX-5q">
    <mxGraphModel>
      <root>
        <mxCell id="0" />
        <mxCell id="1" parent="0" />
      </root>
    </mxGraphModel>
  </diagram>
</mxfile>
